#!OML:ASF \\sashay\E\Suitcase\Project 1\Capture day 1\Session 1\Male1.ASF
:FULLY-SPECIFIED
:DEGREES
81
root 0.872663 17.5003 -33.0107 2.61372 7.39203 -1.72591
lowerback 3.17001 -0.409885 -0.793019
upperback -0.861356 -0.504262 2.89771
thorax -2.63147 -0.214301 3.45894
lowerneck -14.9397 -2.20645 -2.40294
upperneck 10.6698 -2.61217 1.03065
head 5.71042 -1.29163 0.474704
rclavicle -2.03754e-015 -1.11319e-014
rhumerus -32.0254 -9.59278 -77.8919
rradius 27.2063
rwrist -12.8078
rhand -8.13448 15.4701
rfingers 7.12502
rthumb 17.7794 -13.7371
lclavicle -2.03754e-015 -1.11319e-014
lhumerus -32.6931 7.78088 89.1373
lradius 26.7169
lwrist -8.13952
lhand -4.16409 40.6275
lfingers 7.12502
lthumb 21.5964 69.4432
rfemur -7.64774 -2.20834 21.1397
rtibia 25.4592
rfoot -20.8681 -12.9915
rtoes 10.9811
lfemur -10.3623 -6.48003 -17.8151
ltibia 27.0401
lfoot -19.5594 2.78976
ltoes -3.61642
82
root 0.873458 17.5037 -33.0147 2.72969 7.48137 -1.54345
lowerback 3.20277 -0.379836 -0.931852
upperback -1.01425 -0.469543 2.79974
thorax -2.80953 -0.191888 3.43597
lowerneck -14.7784 -2.13114 -2.29373
upperneck 10.7175 -2.54285 1.06489
head 5.69667 -1.25144 0.475687
rclavicle 2.75814e-015 1.43125e-014
rhumerus -32.382 -9.82292 -77.7916
rradius 27.1534
rwrist -12.6874
rhand -8.44825 15.1586
rfingers 7.12502
rthumb 17.4775 -14.0757
lclavicle 2.75814e-015 1.43125e-014
lhumerus -32.9028 7.27035 89.2696
lradius 26.8514
lwrist -7.79502
lhand -4.14278 40.3611
lfingers 7.12502
lthumb 21.6168 69.1745
rfemur -7.69812 -2.54628 20.9123
rtibia 25.354
rfoot -20.4579 -12.8324
rtoes 10.9646
lfemur -10.4727 -6.30325 -18.0172
ltibia 27.0974
lfoot -19.69 2.6143
ltoes -3.836
83
root 0.870924 17.5032 -33.0153 2.80921 7.24294 -1.42197
lowerback 2.9361 -0.363145 -1.08529
upperback -0.854254 -0.458144 2.78486
thorax -2.49422 -0.189395 3.50179
lowerneck -15.0671 -2.04784 -2.34737
upperneck 10.7626 -2.42708 1.16897
head 5.75878 -1.18813 0.525201
rclavicle 2.18166e-014 -4.77083e-015
rhumerus -31.9778 -10.1362 -77.7157
rradius 26.6011
rwrist -12.3689
rhand -9.01794 15.4674
rfingers 7.12502
rthumb 16.9292 -13.8148
lclavicle 2.18166e-014 -4.77083e-015
lhumerus -32.6235 7.39085 89.2702
lradius 26.7344
lwrist -7.69844
lhand -4.53012 39.6904
lfingers 7.12502
lthumb 21.2448 68.5461
rfemur -7.7932 -2.35831 20.7744
rtibia 25.3389
rfoot -20.6311 -12.6537
rtoes 11.2993
lfemur -10.5144 -6.37827 -18.1417
ltibia 27.0916
lfoot -19.6343 2.8375
ltoes -3.58735
84
root 0.862341 17.5086 -33.0217 2.7932 7.30478 -1.69782
lowerback 3.04466 -0.380317 -0.896773
upperback -0.921641 -0.468096 2.9229
thorax -2.62454 -0.19382 3.54097
lowerneck -14.7838 -2.08445 -2.49973
upperneck 10.5353 -2.46125 1.25027
head 5.64364 -1.20577 0.575699
rclavicle 1.86361e-014 -2.38542e-015
rhumerus -32.0968 -10.3107 -77.5161
rradius 26.3204
rwrist -12.1774
rhand -9.30659 15.7602
rfingers 7.12502
rthumb 16.6513 -13.5456
lclavicle 1.86361e-014 -2.38542e-015
lhumerus -32.7325 7.23657 89.4441
lradius 26.9932
lwrist -7.85777
lhand -4.13886 41.2645
lfingers 7.12502
lthumb 21.6206 70.0774
rfemur -7.85158 -2.19251 21.1389
rtibia 25.3218
rfoot -20.5284 -12.9837
rtoes 11.8184
lfemur -10.5895 -6.25474 -17.7978
ltibia 27.1145
lfoot -19.7019 2.70715
ltoes -3.68541
85
root 0.864705 17.5052 -33.018 2.82499 7.10417 -1.62449
lowerback 2.92375 -0.236453 -0.936714
upperback -0.95156 -0.280208 2.82545
thorax -2.60024 -0.100132 3.45178
lowerneck -14.5807 -2.13475 -2.13455
upperneck 10.4414 -2.59139 1.12589
head 5.57626 -1.2644 0.468
rclavicle -4.29872e-015 7.15625e-015
rhumerus -32.3465 -10.8 -77.3437
rradius 26.1894
rwrist -12.3447
rhand -9.80826 15.781
rfingers 7.12502
rthumb 16.1683 -13.5647
lclavicle -4.29872e-015 7.15625e-015
lhumerus -32.8297 6.67617 89.5706
lradius 27.1201
lwrist -7.73728
lhand -4.02494 41.5328
lfingers 7.12502
lthumb 21.73 70.3331
rfemur -7.83581 -2.26354 21.0169
rtibia 25.255
rfoot -20.5322 -12.7089
rtoes 11.3048
lfemur -10.5996 -6.30822 -17.9045
ltibia 27.1464
lfoot -19.4996 2.9454
ltoes -3.355
86
root 0.858275 17.5105 -33.0234 2.84269 7.25896 -1.64841
lowerback 3.00388 -0.265436 -0.976995
upperback -0.98097 -0.318946 2.84851
thorax -2.67283 -0.117428 3.50153
lowerneck -14.5102 -2.07297 -2.19343
upperneck 10.307 -2.50862 1.21448
head 5.52285 -1.22004 0.514138
rclavicle 1.56543e-015 -7.15625e-015
rhumerus -32.3394 -11.1683 -77.1653
rradius 25.8423
rwrist -12.0888
rhand -10.0492 15.7856
rfingers 7.12502
rthumb 15.9363 -13.5788
lclavicle 1.56543e-015 -7.15625e-015
lhumerus -32.8105 6.34266 89.7158
lradius 27.1738
lwrist -7.59968
lhand -4.39205 41.9378
lfingers 7.12502
lthumb 21.3774 70.7785
rfemur -7.82753 -2.27119 21.0917
rtibia 25.1528
rfoot -20.2548 -12.9565
rtoes 11.3379
lfemur -10.6787 -6.20071 -17.8429
ltibia 27.2039
lfoot -19.7851 2.7229
ltoes -3.93942
87
root 0.850008 17.5093 -33.0207 2.77247 7.23195 -1.91313
lowerback 2.89684 -0.276512 -0.801159
upperback -0.874578 -0.326703 2.95605
thorax -2.50277 -0.126283 3.51204
lowerneck -14.6193 -2.10215 -2.2324
upperneck 10.3253 -2.53869 1.22276
head 5.54777 -1.23515 0.519236
rclavicle -5.59082e-015 1.98785e-014
rhumerus -32.2673 -11.2086 -77.1418
rradius 25.6819
rwrist -12.0138
rhand -10.6467 15.2455
rfingers 7.12502
rthumb 15.3608 -14.1639
lclavicle -5.59082e-015 1.98785e-014
lhumerus -32.6011 6.38891 89.7623
lradius 27.1784
lwrist -7.73659
lhand -4.03187 42.0959
lfingers 7.12502
lthumb 21.7234 70.897
rfemur -7.73786 -2.1065 21.4337
rtibia 25.1063
rfoot -20.5374 -12.9628
rtoes 11.4058
lfemur -10.6541 -6.20227 -17.5049
ltibia 27.2133
lfoot -19.638 2.74052
ltoes -3.66766
88
root 0.852306 17.5096 -33.0195 2.77266 7.18169 -1.80136
lowerback 2.82128 -0.279426 -0.875304
upperback -0.813084 -0.33633 2.91359
thorax -2.39607 -0.132208 3.50905
lowerneck -14.6646 -2.00806 -2.20154
upperneck 10.2574 -2.41573 1.21633
head 5.53123 -1.17426 0.523241
rclavicle -1.98785e-015 -7.15625e-015
rhumerus -32.2528 -11.5038 -76.9408
rradius 25.4587
rwrist -12.1589
rhand -9.95842 15.3723
rfingers 7.12502
rthumb 16.0237 -13.985
lclavicle -1.98785e-015 -7.15625e-015
lhumerus -32.5603 6.08208 89.8468
lradius 27.3524
lwrist -7.28209
lhand -3.82958 42.6905
lfingers 7.12502
lthumb 21.9176 71.469
rfemur -7.70195 -2.19552 21.2905
rtibia 25.0384
rfoot -20.3394 -12.962
rtoes 11.2293
lfemur -10.5932 -6.28811 -17.6574
ltibia 27.2305
lfoot -19.6408 2.95315
ltoes -4.02824
89
root 0.844817 17.5129 -33.0239 2.90802 7.26677 -1.78427
lowerback 2.67424 -0.312233 -0.951524
upperback -0.823519 -0.383221 2.93264
thorax -2.32039 -0.155188 3.57274
lowerneck -14.8258 -2.06685 -2.25651
upperneck 10.392 -2.49402 1.31125
head 5.60358 -1.20673 0.552959
rclavicle 7.97623e-015 2.38542e-014
rhumerus -32.2481 -11.4451 -76.959
rradius 25.2498
rwrist -12.2011
rhand -10.5228 15.5291
rfingers 7.12502
rthumb 15.4802 -13.8711
lclavicle 7.97623e-015 2.38542e-014
lhumerus -32.4101 6.01281 89.917
lradius 27.2961
lwrist -7.40002
lhand -4.46892 41.5274
lfingers 7.12502
lthumb 21.3036 70.3764
rfemur -7.81601 -2.12941 21.3173
rtibia 24.9864
rfoot -20.5091 -12.9603
rtoes 11.3084
lfemur -10.8014 -6.30169 -17.6097
ltibia 27.2435
lfoot -19.6432 2.74364
ltoes -3.34351
90
root 0.842874 17.5122 -33.0225 2.90046 7.32384 -1.81513
lowerback 2.75205 -0.33596 -0.967469
upperback -0.869772 -0.413335 2.96577
thorax -2.40945 -0.168154 3.61883
lowerneck -14.8187 -2.05261 -2.30317
upperneck 10.5448 -2.47897 1.39851
head 5.65214 -1.19473 0.588886
rclavicle 1.98536e-014 -1.19271e-014
rhumerus -32.3349 -11.694 -76.7548
rradius 25.0005
rwrist -12.2156
rhand -10.7245 15.6803
rfingers 7.12502
rthumb 15.2859 -13.7348
lclavicle 1.98536e-014 -1.19271e-014
lhumerus -32.6477 5.91421 89.9536
lradius 27.4883
lwrist -7.42542
lhand -4.28038 41.9097
lfingers 7.12502
lthumb 21.4847 70.7382
rfemur -7.7887 -2.14815 21.3615
rtibia 24.9216
rfoot -20.3371 -13.093
rtoes 11.6124
lfemur -10.791 -6.25016 -17.5751
ltibia 27.2725
lfoot -19.7029 2.77575
ltoes -3.99305
